{
  "accessors": [
    {
      "bufferView": 2,
      "componentType": 5126,
      "count": 8000,
      "max": [
        383.7702941894531,
        175.83084106445313,
        339.5966491699219
      ],
      "min": [
        -386.2485656738281,
        163.03469848632813,
        42.575584411621094
      ],
      "type": "VEC3"
    },
    {
      "bufferView": 2,
      "byteOffset": 96000,
      "componentType": 5126,
      "count": 8000,
      "max": [
        1.0,
        1.0,
        1.0
      ],
      "min": [
        -1.0,
        -1.0,
        -1.0
      ],
      "type": "VEC3"
    },
    {
      "bufferView": 1,
      "componentType": 5126,
      "count": 8000,
      "max": [
        1.0,
        1.0
      ],
      "min": [
        0.0,
        0.0
      ],
      "type": "VEC2"
    },
    {
      "bufferView": 0,
      "componentType": 5125,
      "count": 47136,
      "type": "SCALAR"
    },
    {
      "bufferView": 2,
      "byteOffset": 192000,
      "componentType": 5126,
      "count": 5733,
      "max": [
        -200.19171142578125,
        175.67864990234375,
        277.78277587890625
      ],
      "min": [
        -331.82061767578125,
        163.1868896484375,
        106.65277099609375
      ],
      "type": "VEC3"
    },
    {
      "bufferView": 2,
      "byteOffset": 260796,
      "componentType": 5126,
      "count": 5733,
      "max": [
        1.0,
        1.0,
        0.9999985098838806
      ],
      "min": [
        -1.0,
        -1.0,
        -1.0
      ],
      "type": "VEC3"
    },
    {
      "bufferView": 1,
      "byteOffset": 64000,
      "componentType": 5126,
      "count": 5733,
      "max": [
        1.0,
        0.9371849298477173
      ],
      "min": [
        0.0,
        0.004907488822937012
      ],
      "type": "VEC2"
    },
    {
      "bufferView": 0,
      "byteOffset": 188544,
      "componentType": 5125,
      "count": 33792,
      "type": "SCALAR"
    },
    {
      "bufferView": 2,
      "byteOffset": 329592,
      "componentType": 5126,
      "count": 4965,
      "max": [
        -46.31259536743164,
        176.25323486328125,
        277.1940612792969
      ],
      "min": [
        -154.14910888671875,
        163.95777893066406,
        107.55992126464844
      ],
      "type": "VEC3"
    },
    {
      "bufferView": 2,
      "byteOffset": 389172,
      "componentType": 5126,
      "count": 4965,
      "max": [
        0.9999969005584717,
        1.0,
        1.0
      ],
      "min": [
        -1.0,
        -1.0,
        -1.0
      ],
      "type": "VEC3"
    },
    {
      "bufferView": 1,
      "byteOffset": 109864,
      "componentType": 5126,
      "count": 4965,
      "max": [
        1.0,
        0.9861543774604797
      ],
      "min": [
        0.0,
        0.1772235631942749
      ],
      "type": "VEC2"
    },
    {
      "bufferView": 0,
      "byteOffset": 323712,
      "componentType": 5125,
      "count": 29184,
      "type": "SCALAR"
    },
    {
      "bufferView": 2,
      "byteOffset": 448752,
      "componentType": 5126,
      "count": 5733,
      "max": [
        113.54902648925781,
        174.3856964111328,
        275.410400390625
      ],
      "min": [
        3.18951678276062,
        163.14735412597656,
        105.6104965209961
      ],
      "type": "VEC3"
    },
    {
      "bufferView": 2,
      "byteOffset": 517548,
      "componentType": 5126,
      "count": 5733,
      "max": [
        1.0,
        1.0,
        0.9999996423721313
      ],
      "min": [
        -1.0,
        -1.0,
        -1.0
      ],
      "type": "VEC3"
    },
    {
      "bufferView": 1,
      "byteOffset": 149584,
      "componentType": 5126,
      "count": 5733,
      "max": [
        1.0,
        0.931790828704834
      ],
      "min": [
        0.0,
        0.0053288936614990234
      ],
      "type": "VEC2"
    },
    {
      "bufferView": 0,
      "byteOffset": 440448,
      "componentType": 5125,
      "count": 33792,
      "type": "SCALAR"
    },
    {
      "bufferView": 2,
      "byteOffset": 586344,
      "componentType": 5126,
      "count": 6245,
      "max": [
        328.92010498046875,
        175.6300048828125,
        275.3505554199219
      ],
      "min": [
        162.44744873046875,
        162.847412109375,
        109.13530731201172
      ],
      "type": "VEC3"
    },
    {
      "bufferView": 2,
      "byteOffset": 661284,
      "componentType": 5126,
      "count": 6245,
      "max": [
        1.0,
        1.0,
        1.0
      ],
      "min": [
        -0.9998987913131714,
        -1.0,
        -1.0
      ],
      "type": "VEC3"
    },
    {
      "bufferView": 1,
      "byteOffset": 195448,
      "componentType": 5126,
      "count": 6245,
      "max": [
        1.0,
        0.6952574253082275
      ],
      "min": [
        0.0,
        0.02380812168121338
      ],
      "type": "VEC2"
    },
    {
      "bufferView": 0,
      "byteOffset": 575616,
      "componentType": 5125,
      "count": 36864,
      "type": "SCALAR"
    }
  ],
  "asset": {
    "extras": {
      "author": "Designed By Jonathan (https://sketchfab.com/designedbyjonathan)",
      "license": "CC-BY-4.0 (http://creativecommons.org/licenses/by/4.0/)",
      "source": "https://sketchfab.com/3d-models/neon-open-sign-a04c11ddadb4419392c94dc97e78e847",
      "title": "Neon Open Sign"
    },
    "generator": "Sketchfab-12.65.0",
    "version": "2.0"
  },
  "bufferViews": [
    {
      "buffer": 0,
      "byteLength": 723072,
      "name": "floatBufferViews",
      "target": 34963
    },
    {
      "buffer": 0,
      "byteLength": 245408,
      "byteOffset": 723072,
      "byteStride": 8,
      "name": "floatBufferViews",
      "target": 34962
    },
    {
      "buffer": 0,
      "byteLength": 736224,
      "byteOffset": 968480,
      "byteStride": 12,
      "name": "floatBufferViews",
      "target": 34962
    }
  ],
  "buffers": [
    {
      "byteLength": 1704704,
      "uri": "scene.bin"
    }
  ],
  "materials": [
    {
      "doubleSided": true,
      "name": "material",
      "pbrMetallicRoughness": {
        "baseColorFactor": [
          1.0,
          0.03709710925778372,
          0.0,
          1.0
        ],
        "metallicFactor": 0.3057191715751473,
        "roughnessFactor": 0.12882386471594143
      }
    }
  ],
  "meshes": [
    {
      "name": "Object_0",
      "primitives": [
        {
          "attributes": {
            "NORMAL": 1,
            "POSITION": 0,
            "TEXCOORD_0": 2
          },
          "indices": 3,
          "material": 0,
          "mode": 4
        }
      ]
    },
    {
      "name": "Object_1",
      "primitives": [
        {
          "attributes": {
            "NORMAL": 5,
            "POSITION": 4,
            "TEXCOORD_0": 6
          },
          "indices": 7,
          "material": 0,
          "mode": 4
        }
      ]
    },
    {
      "name": "Object_2",
      "primitives": [
        {
          "attributes": {
            "NORMAL": 9,
            "POSITION": 8,
            "TEXCOORD_0": 10
          },
          "indices": 11,
          "material": 0,
          "mode": 4
        }
      ]
    },
    {
      "name": "Object_3",
      "primitives": [
        {
          "attributes": {
            "NORMAL": 13,
            "POSITION": 12,
            "TEXCOORD_0": 14
          },
          "indices": 15,
          "material": 0,
          "mode": 4
        }
      ]
    },
    {
      "name": "Object_4",
      "primitives": [
        {
          "attributes": {
            "NORMAL": 17,
            "POSITION": 16,
            "TEXCOORD_0": 18
          },
          "indices": 19,
          "material": 0,
          "mode": 4
        }
      ]
    }
  ],
  "nodes": [
    {
      "children": [
        1
      ],
      "matrix": [
        1.0,
        0.0,
        0.0,
        0.0,
        0.0,
        2.220446049250313e-16,
        -1.0,
        0.0,
        0.0,
        1.0,
        2.220446049250313e-16,
        0.0,
        0.0,
        0.0,
        0.0,
        1.0
      ],
      "name": "Sketchfab_model"
    },
    {
      "children": [
        2,
        3,
        4,
        5,
        6
      ],
      "name": "Open Sign.obj.cleaner.materialmerger.gles"
    },
    {
      "mesh": 0,
      "name": "Object_2"
    },
    {
      "mesh": 1,
      "name": "Object_3"
    },
    {
      "mesh": 2,
      "name": "Object_4"
    },
    {
      "mesh": 3,
      "name": "Object_5"
    },
    {
      "mesh": 4,
      "name": "Object_6"
    }
  ],
  "scene": 0,
  "scenes": [
    {
      "name": "Sketchfab_Scene",
      "nodes": [
        0
      ]
    }
  ]
}
