{
	"asset":{
		"generator":"Khronos glTF Blender I/O v4.1.63",
		"version":"2.0"
	},
	"scene":0,
	"scenes":[
		{
			"name":"Scene",
			"nodes":[
				0,
				1
			]
		}
	],
	"nodes":[
		{
			"mesh":0,
			"name":"Cylinder",
			"scale":[
				2.5,
				0.25,
				2.5
			]
		},
		{
			"mesh":1,
			"name":"Text",
			"rotation":[
				0.5,
				0.5,
				-0.5,
				0.5
			],
			"scale":[
				1,
				0.13333337008953094,
				1
			],
			"translation":[
				0,
				1.709999918937683,
				1.5099999904632568
			]
		}
	],
	"materials":[
		{
			"doubleSided":true,
			"name":"Material.001",
			"pbrMetallicRoughness":{
				"baseColorFactor":[
					0.6866814494132996,
					0.3185471296310425,
					0.17788854241371155,
					1
				],
				"metallicFactor":0,
				"roughnessFactor":0.5
			}
		},
		{
			"doubleSided":true,
			"name":"Material.002",
			"pbrMetallicRoughness":{
				"baseColorFactor":[
					1,
					0.45511865615844727,
					0.005498111248016357,
					1
				],
				"metallicFactor":0,
				"roughnessFactor":0.5
			}
		}
	],
	"meshes":[
		{
			"name":"Cylinder",
			"primitives":[
				{
					"attributes":{
						"POSITION":0,
						"NORMAL":1,
						"TEXCOORD_0":2
					},
					"indices":3,
					"material":0
				}
			]
		},
		{
			"name":"Text",
			"primitives":[
				{
					"attributes":{
						"POSITION":4,
						"NORMAL":5,
						"TEXCOORD_0":6
					},
					"indices":7,
					"material":1
				}
			]
		}
	],
	"accessors":[
		{
			"bufferView":0,
			"componentType":5126,
			"count":352,
			"max":[
				1,
				1,
				1
			],
			"min":[
				-1,
				-1,
				-1
			],
			"type":"VEC3"
		},
		{
			"bufferView":1,
			"componentType":5126,
			"count":352,
			"type":"VEC3"
		},
		{
			"bufferView":2,
			"componentType":5126,
			"count":352,
			"type":"VEC2"
		},
		{
			"bufferView":3,
			"componentType":5123,
			"count":666,
			"type":"SCALAR"
		},
		{
			"bufferView":4,
			"componentType":5126,
			"count":2634,
			"max":[
				2.936000347137451,
				0.75,
				0.23000000417232513
			],
			"min":[
				0.05000000074505806,
				-0.75,
				-0.6910000443458557
			],
			"type":"VEC3"
		},
		{
			"bufferView":5,
			"componentType":5126,
			"count":2634,
			"type":"VEC3"
		},
		{
			"bufferView":6,
			"componentType":5126,
			"count":2634,
			"type":"VEC2"
		},
		{
			"bufferView":7,
			"componentType":5123,
			"count":7824,
			"type":"SCALAR"
		}
	],
	"bufferViews":[
		{
			"buffer":0,
			"byteLength":4224,
			"byteOffset":0,
			"target":34962
		},
		{
			"buffer":0,
			"byteLength":4224,
			"byteOffset":4224,
			"target":34962
		},
		{
			"buffer":0,
			"byteLength":2816,
			"byteOffset":8448,
			"target":34962
		},
		{
			"buffer":0,
			"byteLength":1332,
			"byteOffset":11264,
			"target":34963
		},
		{
			"buffer":0,
			"byteLength":31608,
			"byteOffset":12596,
			"target":34962
		},
		{
			"buffer":0,
			"byteLength":31608,
			"byteOffset":44204,
			"target":34962
		},
		{
			"buffer":0,
			"byteLength":21072,
			"byteOffset":75812,
			"target":34962
		},
		{
			"buffer":0,
			"byteLength":15648,
			"byteOffset":96884,
			"target":34963
		}
	],
	"buffers":[
		{
			"byteLength":112532,
			"uri":"scene.bin"
		}
	]
}
