{
  "accessors": [
    {
      "bufferView": 2,
      "componentType": 5126,
      "count": 4728,
      "max": [
        -0.09009601920843124,
        6.421239852905273,
        44.30076599121094
      ],
      "min": [
        -2.4978432655334473,
        -24.13446807861328,
        0.5022387504577637
      ],
      "type": "VEC3"
    },
    {
      "bufferView": 2,
      "byteOffset": 56736,
      "componentType": 5126,
      "count": 4728,
      "max": [
        1.0,
        1.0,
        1.0
      ],
      "min": [
        -1.0,
        -1.0,
        -1.0
      ],
      "type": "VEC3"
    },
    {
      "bufferView": 1,
      "componentType": 5126,
      "count": 4728,
      "max": [
        0.933837890625,
        0.9501110315322876
      ],
      "min": [
        0.020289599895477295,
        0.020687974989414215
      ],
      "type": "VEC2"
    },
    {
      "bufferView": 0,
      "componentType": 5125,
      "count": 7092,
      "type": "SCALAR"
    }
  ],
  "asset": {
    "extras": {
      "author": "fortbonnitar (https://sketchfab.com/fortbonnitar)",
      "license": "CC-BY-4.0 (http://creativecommons.org/licenses/by/4.0/)",
      "source": "https://sketchfab.com/3d-models/pixel-small-super-mario-a225d9cf3c83479683285895c9e30f28",
      "title": "Pixel Small Super Mario"
    },
    "generator": "Sketchfab-15.22.0",
    "version": "2.0"
  },
  "bufferViews": [
    {
      "buffer": 0,
      "byteLength": 28368,
      "name": "floatBufferViews",
      "target": 34963
    },
    {
      "buffer": 0,
      "byteLength": 37824,
      "byteOffset": 28368,
      "byteStride": 8,
      "name": "floatBufferViews",
      "target": 34962
    },
    {
      "buffer": 0,
      "byteLength": 113472,
      "byteOffset": 66192,
      "byteStride": 12,
      "name": "floatBufferViews",
      "target": 34962
    }
  ],
  "buffers": [
    {
      "byteLength": 179664,
      "uri": "scene.bin"
    }
  ],
  "images": [
    {
      "uri": "textures/SmallIdleMat_baseColor.png"
    }
  ],
  "materials": [
    {
      "doubleSided": true,
      "name": "SmallIdleMat",
      "pbrMetallicRoughness": {
        "baseColorTexture": {
          "index": 0
        },
        "metallicFactor": 0.0,
        "roughnessFactor": 0.8211145618000169
      }
    }
  ],
  "meshes": [
    {
      "name": "SmaallIdleMerged_SmallIdleMat_0",
      "primitives": [
        {
          "attributes": {
            "NORMAL": 1,
            "POSITION": 0,
            "TEXCOORD_0": 2
          },
          "indices": 3,
          "material": 0,
          "mode": 4
        }
      ]
    }
  ],
  "nodes": [
    {
      "children": [
        1
      ],
      "matrix": [
        1.0,
        0.0,
        0.0,
        0.0,
        0.0,
        2.220446049250313e-16,
        -1.0,
        0.0,
        0.0,
        1.0,
        2.220446049250313e-16,
        0.0,
        0.0,
        0.0,
        0.0,
        1.0
      ],
      "name": "Sketchfab_model"
    },
    {
      "children": [
        2
      ],
      "matrix": [
        0.009999999776482582,
        0.0,
        0.0,
        0.0,
        0.0,
        0.0,
        0.009999999776482582,
        0.0,
        0.0,
        -0.009999999776482582,
        0.0,
        0.0,
        0.0,
        0.0,
        0.0,
        1.0
      ],
      "name": "77b1d36e3fb0471c8322e44765033eba.fbx"
    },
    {
      "children": [
        3
      ],
      "name": "RootNode"
    },
    {
      "children": [
        4
      ],
      "matrix": [
        -128.6180877685449,
        1.2723450829675243e-12,
        5.008573261646842e-05,
        0.0,
        3.8941437775530065e-05,
        7.549789982075339e-06,
        99.99999999999213,
        0.0,
        -1.9507540305093026e-12,
        99.9999999999997,
        -7.549789970973109e-06,
        0.0,
        0.0,
        0.0,
        0.0,
        1.0
      ],
      "name": "SmaallIdleMerged"
    },
    {
      "mesh": 0,
      "name": "SmaallIdleMerged_SmallIdleMat_0"
    }
  ],
  "samplers": [
    {
      "magFilter": 9729,
      "minFilter": 9987,
      "wrapS": 10497,
      "wrapT": 10497
    }
  ],
  "scene": 0,
  "scenes": [
    {
      "name": "Sketchfab_Scene",
      "nodes": [
        0
      ]
    }
  ],
  "textures": [
    {
      "sampler": 0,
      "source": 0
    }
  ]
}
